<?xml version="1.0" encoding="UTF-8"?>
<svg xmlns="http://www.w3.org/2000/svg" viewBox="0 0 117 128" width="64" height="64">
  <title>PRITHVI-Raksha AI</title>
  <path d="M 73,123 L 74,123 L 75,122 L 77,122 L 78,121 L 80,121 L 79,122 L 78,122 L 77,123 Z" fill="#194439" />
  <path d="M 38,121 L 37,121 L 36,120 L 35,120 L 34,119 L 33,119 L 32,118 L 32,117 L 33,118 L 34,118 L 35,119 L 36,119 Z" fill="#194439" />
  <path d="M 86,118 L 88,116 L 89,116 L 91,114 L 92,114 L 102,104 L 102,103 L 103,102 L 103,104 L 102,104 L 100,106 L 100,107 L 98,109 L 98,110 L 97,110 L 95,112 L 94,112 L 92,114 L 92,115 L 91,115 L 90,116 L 89,116 L 87,118 Z" fill="#194439" />
  <path d="M 13,98 L 12,98 L 11,97 L 11,96 L 10,95 L 10,94 L 9,93 L 9,92 L 10,92 L 10,93 L 12,95 L 12,97 Z" fill="#194439" />
  <path d="M 102,89 L 101,90 L 100,90 L 100,89 L 99,88 L 96,88 L 96,86 L 95,85 L 94,85 L 92,83 L 91,83 L 90,82 L 91,82 L 92,83 L 94,83 L 95,82 L 95,83 L 96,84 L 97,84 L 98,85 L 99,85 L 98,86 L 98,87 L 99,88 L 102,88 Z" fill="#194439" />
  <path d="M 73,80 L 71,81 L 73,80 L 73,75 L 71,73 L 68,73 L 62,77 L 66,73 L 65,71 L 60,73 L 58,71 L 54,70 L 53,72 L 48,72 L 47,73 L 48,67 L 49,69 L 55,69 L 56,68 L 56,65 L 53,61 L 50,63 L 53,60 L 56,60 L 57,61 L 62,61 L 63,60 L 64,63 L 61,68 L 61,70 L 62,71 L 66,71 L 67,73 L 71,73 L 72,70 Z" fill="#194439" />
  <path d="M 104,76 L 103,76 L 102,77 L 103,76 L 103,74 L 100,71 L 97,71 L 96,72 L 96,73 L 96,71 L 97,70 L 97,68 L 96,67 L 96,66 L 100,70 L 101,70 L 101,71 L 104,74 Z" fill="#194439" />
  <path d="M 114,73 L 113,72 L 113,66 L 114,65 L 115,66 L 115,71 L 114,72 Z" fill="#194439" />
  <path d="M 20,54 L 20,47 L 21,46 L 29,46 L 30,47 L 32,47 L 33,46 L 39,46 L 39,49 L 40,50 L 42,49 L 42,47 L 43,46 L 49,46 L 50,47 L 50,52 L 49,53 L 43,53 L 41,51 L 40,51 L 38,53 L 33,53 L 31,51 L 26,51 L 27,48 L 26,47 L 23,47 L 21,49 L 21,52 L 23,54 L 29,54 L 29,55 L 21,55 Z" fill="#194439" />
  <path d="M 67,34 L 67,33 L 65,31 L 65,29 L 64,28 L 63,28 L 65,28 L 66,27 L 66,26 L 70,26 L 70,27 L 71,28 L 73,28 L 72,28 L 71,29 L 71,31 L 70,31 L 69,32 L 69,34 Z" fill="#194439" />
  <path d="M 88,32 L 87,32 L 87,31 L 86,30 L 84,30 L 84,28 L 85,28 L 87,26 L 87,28 L 88,29 Z" fill="#194439" />
  <path d="M 70,14 L 69,15 L 66,15 L 65,14 L 64,14 L 63,13 L 61,13 L 60,14 L 58,14 L 58,12 L 60,10 L 60,9 L 64,9 L 65,10 L 65,11 L 67,13 L 70,13 Z" fill="#194439" />
  <path d="M 11,73 L 15,74 L 14,85 L 19,80 L 18,89 L 23,87 L 22,92 L 39,99 L 41,94 L 53,107 L 58,103 L 54,98 L 60,93 L 59,99 L 67,96 L 75,82 L 79,89 L 64,96 L 63,101 L 93,103 L 98,98 L 77,111 L 82,108 L 80,104 L 71,103 L 73,109 L 54,107 L 57,113 L 52,107 L 45,106 L 38,112 L 43,108 L 40,106 L 27,109 L 30,114 L 25,108 L 38,107 L 40,103 L 32,100 L 24,104 L 29,100 L 9,87 L 12,85 L 9,84 L 12,82 Z" fill="#382f23" />
  <path d="M 17,100 L 18,99 L 17,100 L 16,100 L 15,99 L 15,97 L 12,94 L 12,92 L 11,91 L 12,92 L 13,92 L 14,93 L 14,95 L 15,96 L 15,99 L 16,100 Z" fill="#382f23" />
  <path d="M 53,96 L 51,94 L 52,93 L 52,91 L 50,89 L 48,89 L 47,88 L 47,86 L 46,85 L 44,85 L 41,82 L 41,81 L 40,80 L 38,80 L 38,79 L 39,79 L 41,76 L 42,77 L 42,82 L 44,84 L 47,84 L 47,85 L 48,86 L 50,86 L 51,85 L 50,86 L 50,88 L 51,89 L 51,90 L 53,93 L 52,94 L 52,95 Z" fill="#382f23" />
  <path d="M 105,93 L 105,90 L 106,89 L 106,87 L 107,86 L 107,85 L 109,85 L 107,87 L 107,93 Z" fill="#382f23" />
  <path d="M 108,82 L 108,78 L 109,77 L 109,78 L 110,79 L 110,81 L 109,81 Z" fill="#382f23" />
  <path d="M 33,75 L 33,73 L 34,73 L 35,72 L 35,71 L 36,71 L 36,74 L 35,74 L 34,75 Z" fill="#382f23" />
  <path d="M 21,71 L 22,70 L 22,69 L 21,68 L 20,68 L 23,68 L 24,67 L 26,67 L 26,68 L 24,68 L 22,70 L 22,71 Z" fill="#382f23" />
  <path d="M 11,58 L 12,58 L 15,60 L 20,61 L 21,62 L 23,62 L 25,59 L 26,60 L 25,61 L 25,62 L 28,64 L 32,64 L 33,63 L 33,62 L 36,62 L 34,62 L 33,63 L 33,64 L 34,65 L 35,65 L 35,66 L 34,65 L 32,65 L 31,66 L 30,65 L 23,64 L 21,62 L 20,62 L 19,63 L 19,65 L 15,65 L 14,66 L 14,68 L 14,64 L 17,64 L 18,63 L 18,62 Z" fill="#382f23" />
  <path d="M 89,68 L 87,68 L 84,65 L 85,65 L 86,64 L 86,63 L 85,62 L 83,62 L 86,62 L 86,63 L 87,64 L 86,65 L 86,66 L 87,67 L 89,67 Z" fill="#382f23" />
  <path d="M 90,64 L 91,64 L 92,63 L 95,63 L 96,62 L 98,62 L 99,61 L 101,61 L 102,60 L 103,60 L 104,59 L 105,60 L 104,60 L 103,61 L 101,61 L 99,63 L 97,63 L 95,65 L 95,64 L 94,63 L 92,63 L 91,64 Z" fill="#382f23" />
  <path d="M 71,63 L 69,63 L 69,62 L 68,61 L 67,61 L 66,60 L 66,59 L 65,58 L 65,56 L 64,55 L 63,55 L 62,56 L 63,55 L 64,55 L 65,56 L 66,56 L 68,54 L 71,54 L 68,54 L 66,56 L 66,58 L 68,60 L 69,60 L 69,61 Z" fill="#382f23" />
  <path d="M 89,40 L 89,39 L 92,39 L 93,38 L 94,39 L 95,39 L 95,40 Z" fill="#382f23" />
  <path d="M 30,32 L 31,31 L 31,29 L 29,27 L 28,27 L 27,28 L 26,28 L 25,27 L 24,27 L 27,24 L 28,25 L 28,26 L 31,29 L 31,31 Z" fill="#382f23" />
  <path d="M 77,30 L 77,27 L 79,27 L 79,30 Z" fill="#382f23" />
  <path d="M 32,22 L 31,22 L 30,21 L 29,21 L 28,20 L 27,20 L 27,18 L 31,18 L 31,19 L 30,20 L 30,21 L 31,22 Z" fill="#382f23" />
  <path d="M 63,19 L 63,18 L 64,18 L 65,17 L 66,17 L 66,19 L 67,20 L 69,20 L 70,19 L 70,18 L 71,17 L 72,17 L 71,17 L 70,18 L 70,20 L 71,21 L 70,20 L 67,20 L 66,21 L 65,21 L 65,20 L 64,19 Z" fill="#382f23" />
  <path d="M 83,21 L 82,20 L 84,18 L 85,18 L 86,17 L 85,18 L 85,19 L 84,20 L 84,21 Z" fill="#382f23" />
  <path d="M 52,103 L 51,103 L 51,102 L 49,100 L 48,100 L 46,98 L 45,98 L 45,97 L 46,98 L 47,98 L 48,97 L 49,97 L 49,98 L 50,99 L 50,101 L 51,102 L 52,102 Z" fill="#b3b2ae" />
  <path d="M 87,99 L 87,97 L 86,96 L 82,96 L 80,94 L 80,93 L 81,92 L 81,91 L 83,89 L 83,88 L 84,88 L 85,89 L 87,89 L 89,86 L 89,87 L 90,88 L 91,88 L 91,89 L 93,91 L 92,91 L 92,90 L 90,88 L 88,88 L 87,89 L 87,91 L 89,93 L 89,94 L 91,97 L 90,97 L 89,98 L 89,99 Z" fill="#b3b2ae" />
  <path d="M 37,94 L 36,93 L 35,93 L 34,92 L 35,91 L 35,90 L 36,90 L 36,91 L 37,92 Z" fill="#b3b2ae" />
  <path d="M 82,86 L 82,84 L 81,83 L 82,83 L 84,81 L 85,82 L 82,85 Z" fill="#b3b2ae" />
  <path d="M 54,55 L 53,54 L 53,52 L 55,50 L 60,50 L 61,49 L 61,48 L 60,47 L 54,47 L 54,46 L 60,46 L 62,48 L 62,50 L 61,51 L 55,51 L 54,52 L 54,53 L 55,54 L 60,54 L 61,55 Z" fill="#b3b2ae" />
  <path d="M 65,54 L 65,47 L 66,47 L 66,51 L 67,52 L 71,52 L 72,51 L 72,47 L 76,47 L 76,52 L 74,50 L 73,50 L 70,53 L 69,53 L 68,52 L 67,52 L 66,53 L 66,54 Z" fill="#b3b2ae" />
  <path d="M 89,54 L 89,47 L 90,47 L 90,54 Z" fill="#b3b2ae" />
  <path d="M 100,54 L 99,54 L 99,53 L 98,52 L 97,52 L 96,53 L 95,52 L 94,52 L 93,51 L 93,48 L 95,46 L 99,46 L 100,47 Z" fill="#b3b2ae" />
  <path d="M 79,51 L 79,48 L 81,46 L 86,46 L 86,47 L 85,48 L 85,49 L 86,50 L 86,51 L 84,53 L 82,53 L 81,52 L 80,52 Z" fill="#b3b2ae" />
  <path d="M 25,30 L 30,30 L 29,31 L 28,31 L 27,32 Z" fill="#b3b2ae" />
  <path d="M 0,128 L 0,1 L 116,1 L 116,128 Z" fill="#060401" />
  <path d="M 36,121 L 40,117 L 43,122 L 46,121 L 44,115 L 38,113 L 35,115 L 45,107 L 52,108 L 59,116 L 67,117 L 68,113 L 64,111 L 65,109 L 71,108 L 80,112 L 86,107 L 85,105 L 91,106 L 99,97 L 97,101 L 100,103 L 103,98 L 104,101 L 106,100 L 104,104 L 101,103 L 100,108 L 94,107 L 96,112 L 91,113 L 92,116 L 83,121 L 79,120 L 90,114 L 90,110 L 65,119 L 64,117 L 55,119 L 56,124 L 72,123 L 75,118 L 77,121 L 74,122 L 75,124 L 54,126 Z" fill="#161c14" />
  <path d="M 32,119 L 26,115 L 15,104 L 14,101 L 11,98 L 17,94 L 17,93 L 14,92 L 15,90 L 16,91 L 18,90 L 18,86 L 17,94 L 21,98 L 24,98 L 26,100 L 29,99 L 33,101 L 34,103 L 37,102 L 39,103 L 38,106 L 35,105 L 33,107 L 29,106 L 24,108 L 25,111 L 33,117 Z" fill="#161c14" />
  <path d="M 54,103 L 56,100 L 54,97 L 55,97 L 58,93 L 56,92 L 53,95 L 52,94 L 53,93 L 53,91 L 51,87 L 48,85 L 50,85 L 56,88 L 58,92 L 60,92 L 62,88 L 61,89 L 61,91 L 62,93 L 64,94 L 67,88 L 66,86 L 68,85 L 71,86 L 72,84 L 74,84 L 72,86 L 73,88 L 75,88 L 74,89 L 73,89 L 67,95 L 63,95 L 62,97 L 59,98 L 57,100 L 57,102 L 58,103 Z" fill="#161c14" />
  <path d="M 107,98 L 105,94 L 110,84 L 113,83 L 112,81 L 108,80 L 105,89 L 98,95 L 95,89 L 102,92 L 103,87 L 100,84 L 103,87 L 106,85 L 106,79 L 103,78 L 106,74 L 96,65 L 101,61 L 79,65 L 94,81 L 93,85 L 97,86 L 93,86 L 93,83 L 88,80 L 89,77 L 82,70 L 76,68 L 75,72 L 75,66 L 72,63 L 96,59 L 98,56 L 107,58 L 103,62 L 106,74 L 112,75 L 115,72 Z" fill="#161c14" />
  <path d="M 12,93 L 11,93 L 11,92 L 10,91 L 9,91 L 8,92 L 8,90 L 6,87 L 6,84 L 5,83 L 5,79 L 4,78 L 4,74 L 6,74 L 6,76 L 7,77 L 9,77 L 10,76 L 10,74 L 10,76 L 11,77 L 11,81 L 12,82 L 12,84 L 13,85 L 11,82 L 8,82 L 7,83 L 7,84 L 8,85 L 9,85 L 8,88 L 9,89 L 10,89 L 10,91 Z" fill="#161c14" />
  <path d="M 59,85 L 52,81 L 46,80 L 48,75 L 60,83 L 63,80 L 65,82 L 71,74 L 70,72 L 67,73 L 66,70 L 62,70 L 63,66 L 66,69 L 69,68 L 64,60 L 61,61 L 61,65 L 56,64 L 55,68 L 48,68 L 52,62 L 54,64 L 61,62 L 60,60 L 54,60 L 52,56 L 60,60 L 63,56 L 63,52 L 63,55 L 65,57 L 67,56 L 68,59 L 66,58 L 65,60 L 71,69 L 72,80 Z" fill="#161c14" />
  <path d="M 11,72 L 10,57 L 20,56 L 21,45 L 42,46 L 42,31 L 56,42 L 92,40 L 88,33 L 58,33 L 41,17 L 53,17 L 54,29 L 65,26 L 62,18 L 68,23 L 73,17 L 76,31 L 83,30 L 83,18 L 90,23 L 93,18 L 94,28 L 114,28 L 103,33 L 95,29 L 90,33 L 95,41 L 78,41 L 78,46 L 53,44 L 49,54 L 44,54 L 51,52 L 49,45 L 21,45 L 21,56 L 30,55 L 23,48 L 42,53 L 23,59 L 48,61 L 44,68 L 27,67 L 38,75 L 42,70 L 39,78 L 36,70 L 20,69 L 21,63 L 14,63 Z" fill="#161c14" />
  <path d="M 102,75 L 100,75 L 100,74 L 99,73 L 97,73 L 97,72 L 98,72 L 99,73 L 101,73 L 102,74 Z" fill="#161c14" />
  <path d="M 115,65 L 113,65 L 113,62 L 112,61 L 112,57 L 114,57 L 114,61 L 113,62 L 113,63 L 114,64 L 115,64 Z" fill="#161c14" />
  <path d="M 4,63 L 4,58 L 6,56 L 6,50 L 13,35 L 11,34 L 11,31 L 9,29 L 4,29 L 3,28 L 4,27 L 11,27 L 12,24 L 14,24 L 16,27 L 23,28 L 22,31 L 26,34 L 30,33 L 32,30 L 33,32 L 31,35 L 28,34 L 23,35 L 22,32 L 19,29 L 15,30 L 13,29 L 12,30 L 13,39 L 11,41 L 8,51 L 6,53 L 6,63 Z" fill="#161c14" />
  <path d="M 113,54 L 111,54 L 111,51 L 110,50 L 110,48 L 109,47 L 109,46 L 108,45 L 108,42 L 107,41 L 107,40 L 105,38 L 105,37 L 104,36 L 105,36 L 106,37 L 106,38 L 107,39 L 107,40 L 108,41 L 108,42 L 110,44 L 110,46 L 111,47 L 111,48 L 112,49 L 112,52 L 113,53 Z" fill="#161c14" />
  <path d="M 44,50 L 44,49 L 45,48 L 48,48 L 48,50 L 47,51 L 45,51 Z" fill="#161c14" />
  <path d="M 29,40 L 29,38 L 30,39 L 33,39 L 34,38 L 38,38 L 38,40 L 33,40 L 32,41 L 30,41 Z" fill="#161c14" />
  <path d="M 79,26 L 77,26 L 77,24 L 78,23 L 79,24 Z" fill="#161c14" />
  <path d="M 22,20 L 22,19 L 23,18 L 23,17 L 36,17 L 36,19 L 35,19 L 33,21 L 33,22 L 33,21 L 35,19 L 35,18 L 34,17 L 31,17 L 30,18 L 30,22 L 29,22 L 28,23 L 28,24 L 25,24 L 25,23 Z" fill="#161c14" />
  <path d="M 71,14 L 70,15 L 70,17 L 69,16 L 68,16 L 67,17 L 67,19 L 67,17 L 66,16 L 65,16 L 64,17 L 64,15 L 63,14 L 62,14 L 60,16 L 56,16 L 54,14 L 51,13 L 51,12 L 54,10 L 55,11 L 57,11 L 59,9 L 59,8 L 60,8 L 61,7 L 61,4 L 65,4 L 65,5 L 64,5 L 63,6 L 63,7 L 67,11 L 70,11 L 71,12 Z" fill="#161c14" />
  <path d="M 76,7 L 78,7 L 80,9 L 77,9 L 76,8 Z" fill="#161c14" />
  <path d="M 46,7 L 46,5 L 49,5 L 49,6 L 48,7 Z" fill="#161c14" />
  <path d="M 52,5 L 52,4 L 58,4 L 58,5 L 54,5 L 53,6 Z" fill="#161c14" />
  <path d="M 68,5 L 68,4 L 69,3 L 69,2 L 70,2 L 69,3 L 69,4 L 70,5 L 71,5 L 72,4 L 73,4 L 73,5 L 72,6 L 69,6 Z" fill="#161c14" />
  <path d="M 56,122 L 56,120 L 64,120 L 65,121 L 65,122 L 61,122 L 60,121 L 58,121 L 57,122 Z" fill="#524d41" />
  <path d="M 84,114 L 85,113 L 86,113 L 88,111 L 90,111 L 90,112 L 88,112 L 85,115 Z" fill="#524d41" />
  <path d="M 29,112 L 29,110 L 30,109 L 34,109 L 35,108 L 38,108 L 37,109 L 32,109 L 31,110 L 30,110 L 29,111 Z" fill="#524d41" />
  <path d="M 80,110 L 79,110 L 80,109 L 80,108 L 79,107 L 79,106 L 78,105 L 76,105 L 80,105 L 81,106 L 81,108 L 80,109 Z" fill="#524d41" />
  <path d="M 92,103 L 80,99 L 65,100 L 64,102 L 67,104 L 62,105 L 64,103 L 63,98 L 65,96 L 71,97 L 71,93 L 73,91 L 76,92 L 80,89 L 76,81 L 72,83 L 74,80 L 74,75 L 70,63 L 74,72 L 78,70 L 84,75 L 82,72 L 76,74 L 76,81 L 79,84 L 80,89 L 74,94 L 74,96 L 77,98 L 82,98 L 88,102 L 92,102 L 97,94 L 97,97 Z" fill="#524d41" />
  <path d="M 13,81 L 16,77 L 15,73 L 17,75 L 16,82 L 18,84 L 20,82 L 20,85 L 24,86 L 29,80 L 36,80 L 33,77 L 35,74 L 37,80 L 40,80 L 42,83 L 43,79 L 41,78 L 43,75 L 47,81 L 44,80 L 43,82 L 45,83 L 43,85 L 47,86 L 47,89 L 43,86 L 40,91 L 50,94 L 50,90 L 51,95 L 47,93 L 42,95 L 39,92 L 40,90 L 31,83 L 30,85 L 33,89 L 28,84 L 26,87 L 33,94 L 30,94 L 27,97 L 28,93 L 22,91 L 19,88 L 20,85 L 14,84 Z" fill="#524d41" />
  <path d="M 13,91 L 12,90 L 11,90 L 11,89 L 10,88 L 10,83 L 11,84 L 11,87 L 12,88 L 12,89 L 13,90 Z" fill="#524d41" />
  <path d="M 56,87 L 57,87 L 58,86 L 61,86 L 62,85 L 63,85 L 64,84 L 65,84 L 66,83 L 69,83 L 70,82 L 69,83 L 69,84 L 67,84 L 66,85 L 65,85 L 64,86 L 63,86 L 61,88 L 61,87 L 60,86 L 58,86 L 57,87 L 57,88 Z" fill="#524d41" />
  <path d="M 101,87 L 99,87 L 98,84 L 96,83 L 95,80 L 93,78 L 93,76 L 92,75 L 90,75 L 88,73 L 88,72 L 83,67 L 81,66 L 82,65 L 87,69 L 90,69 L 91,68 L 90,66 L 88,66 L 87,65 L 88,64 L 89,65 L 93,64 L 95,66 L 95,67 L 93,67 L 92,69 L 90,70 L 90,71 L 89,69 L 88,69 L 87,71 L 90,75 L 92,75 L 95,78 L 97,78 L 96,80 L 99,83 L 98,85 Z" fill="#524d41" />
  <path d="M 104,85 L 104,84 L 103,83 L 102,83 L 101,82 L 101,80 L 100,79 L 101,78 L 101,77 L 99,75 L 98,75 L 97,74 L 98,75 L 99,75 L 102,78 L 102,79 L 103,80 L 104,80 Z" fill="#524d41" />
  <path d="M 108,85 L 108,83 L 109,82 L 109,78 L 110,77 L 110,76 L 111,76 L 111,77 L 109,79 L 109,81 L 110,82 L 110,83 Z" fill="#524d41" />
  <path d="M 52,78 L 48,74 L 47,74 L 46,75 L 46,74 L 45,73 L 44,73 L 44,70 L 45,71 L 46,71 L 46,73 L 47,74 L 48,74 Z" fill="#524d41" />
  <path d="M 66,78 L 67,77 L 67,76 L 66,75 L 65,75 L 64,76 L 62,76 L 64,74 L 64,72 L 65,72 L 65,74 L 66,75 L 67,75 L 68,74 L 69,74 L 69,75 Z" fill="#524d41" />
  <path d="M 28,77 L 27,76 L 27,73 L 26,72 L 26,70 L 25,69 L 24,69 L 23,70 L 23,71 L 23,70 L 25,68 L 26,69 L 26,72 L 27,73 L 27,74 L 28,75 L 29,75 L 29,76 Z" fill="#524d41" />
  <path d="M 47,63 L 49,61 L 50,61 L 51,60 L 51,59 L 52,59 L 52,60 L 49,63 L 49,64 L 48,63 Z" fill="#524d41" />
  <path d="M 56,53 L 56,52 L 61,52 L 61,53 L 62,54 L 63,54 L 64,53 L 64,51 L 63,50 L 63,47 L 62,46 L 63,47 L 64,47 L 64,54 L 62,54 L 61,53 Z" fill="#524d41" />
  <path d="M 91,54 L 91,47 L 92,47 L 93,46 L 92,47 L 92,52 L 93,53 L 92,53 Z" fill="#524d41" />
  <path d="M 77,53 L 77,46 L 79,46 L 78,47 L 78,51 L 77,52 Z" fill="#524d41" />
  <path d="M 96,51 L 95,50 L 95,49 L 96,48 L 97,48 L 98,49 L 98,50 L 97,51 Z" fill="#524d41" />
  <path d="M 53,50 L 54,49 L 54,48 L 59,48 L 59,49 L 54,49 Z" fill="#524d41" />
  <path d="M 48,31 L 49,30 L 49,27 L 50,26 L 52,26 L 52,27 L 51,28 L 50,28 L 49,29 L 49,31 Z" fill="#524d41" />
  <path d="M 27,111 L 27,110 L 28,110 L 29,111 L 31,111 L 32,110 L 37,110 L 39,108 L 41,108 L 40,109 L 40,110 L 39,110 L 38,111 L 37,111 L 34,114 L 36,112 L 36,111 L 35,110 L 33,110 L 32,111 L 31,111 L 30,112 L 30,113 L 31,114 L 30,113 L 30,112 L 29,111 Z" fill="#716d60" />
  <path d="M 54,106 L 53,106 L 47,100 L 51,104 L 52,104 L 53,103 L 53,102 L 53,103 L 54,104 Z" fill="#716d60" />
  <path d="M 92,101 L 88,101 L 91,101 L 93,99 L 93,97 L 91,95 L 91,93 L 94,95 L 95,95 L 96,94 L 96,93 L 94,91 L 94,90 L 93,89 L 93,88 L 91,86 L 91,85 L 90,84 L 90,83 L 90,84 L 91,85 L 91,86 L 93,88 L 93,89 L 94,90 L 94,91 L 96,93 L 96,96 L 95,96 L 94,97 L 94,98 L 92,100 Z" fill="#716d60" />
  <path d="M 54,100 L 54,99 L 53,98 L 52,98 L 51,99 L 51,98 L 44,91 L 43,91 L 42,92 L 42,93 L 45,96 L 44,97 L 44,98 L 45,99 L 43,97 L 43,95 L 42,94 L 42,92 L 41,91 L 41,90 L 37,86 L 38,86 L 40,88 L 42,88 L 43,87 L 44,87 L 47,90 L 50,91 L 50,93 L 49,93 L 48,94 L 48,95 L 49,96 L 52,96 L 52,97 L 54,99 Z" fill="#716d60" />
  <path d="M 81,97 L 77,97 L 76,96 L 74,96 L 75,95 L 75,94 L 77,92 L 76,93 L 76,94 L 78,96 L 80,96 Z" fill="#716d60" />
  <path d="M 35,94 L 34,94 L 32,92 L 32,91 L 31,90 L 30,90 L 27,87 L 27,85 L 28,85 L 29,86 L 30,86 L 31,85 L 31,84 L 30,83 L 31,84 L 32,84 L 35,87 L 35,88 L 38,91 L 36,89 L 35,89 L 34,90 L 33,90 L 32,91 L 32,92 L 34,94 Z" fill="#716d60" />
  <path d="M 79,91 L 81,89 L 81,88 L 80,87 L 80,84 L 77,81 L 78,81 L 79,80 L 79,78 L 78,77 L 77,77 L 77,74 L 79,74 L 81,72 L 83,75 L 81,75 L 80,74 L 79,74 L 78,75 L 78,77 L 79,78 L 79,80 L 80,81 L 82,81 L 80,81 L 79,82 L 79,83 L 80,84 L 80,87 L 81,88 L 81,89 Z" fill="#716d60" />
  <path d="M 20,88 L 20,87 L 21,86 L 21,81 L 20,80 L 21,79 L 21,78 L 26,78 L 27,77 L 29,77 L 30,76 L 30,73 L 31,72 L 31,73 L 32,74 L 32,77 L 33,78 L 34,78 L 35,79 L 35,80 L 34,80 L 33,79 L 29,79 L 28,80 L 28,81 L 27,81 L 26,82 L 26,83 L 25,83 L 24,84 L 24,85 L 23,86 L 22,86 L 21,87 L 21,88 Z" fill="#716d60" />
  <path d="M 57,86 L 56,85 L 55,85 L 54,86 L 53,85 L 52,85 L 50,83 L 46,83 L 47,83 L 48,82 L 49,83 L 52,83 L 53,84 L 54,84 L 55,85 L 56,85 Z" fill="#716d60" />
  <path d="M 68,75 L 65,78 L 63,78 L 62,79 L 61,79 L 59,82 L 60,81 L 60,80 L 57,77 L 56,77 L 55,78 L 53,78 L 55,78 L 56,77 L 56,76 L 54,74 L 54,71 L 55,71 L 55,73 L 56,74 L 56,75 L 58,78 L 60,78 L 62,76 L 62,75 L 61,74 L 62,73 L 64,73 L 63,73 L 62,74 L 62,76 L 63,77 L 64,77 L 65,76 Z" fill="#716d60" />
  <path d="M 95,78 L 95,77 L 93,75 L 94,75 L 95,74 L 95,72 L 93,70 L 92,70 L 90,72 L 90,73 L 91,74 L 90,74 L 89,73 L 89,72 L 86,69 L 87,69 L 88,70 L 90,70 L 91,69 L 92,70 L 93,70 L 95,72 L 95,73 L 97,75 L 96,74 L 95,74 L 94,75 L 94,76 L 95,77 Z" fill="#716d60" />
  <path d="M 21,75 L 21,74 L 20,73 L 20,72 L 19,71 L 20,72 L 23,72 L 24,71 L 24,70 L 25,70 L 25,72 L 26,73 L 26,74 L 22,74 Z" fill="#716d60" />
  <path d="M 45,72 L 45,68 L 46,67 L 46,66 L 47,65 L 47,64 L 50,61 L 50,60 L 51,60 L 48,63 L 48,65 L 47,66 L 47,67 L 46,67 L 45,68 L 45,69 L 46,70 L 45,71 Z" fill="#716d60" />
  <path d="M 30,112 L 32,112 L 33,111 L 36,111 L 37,110 L 38,110 L 39,109 L 40,109 L 39,110 L 38,110 L 37,111 L 36,111 L 33,114 L 32,114 L 32,113 L 31,112 Z" fill="#8e8e88" />
  <path d="M 58,110 L 59,111 L 61,111 L 63,113 L 64,113 L 65,114 L 60,114 L 60,112 Z" fill="#8e8e88" />
  <path d="M 78,109 L 77,109 L 76,108 L 75,108 L 72,105 L 73,105 L 74,106 L 76,106 L 78,108 Z" fill="#8e8e88" />
  <path d="M 50,102 L 49,101 L 50,101 L 51,100 L 51,99 L 50,98 L 52,98 L 53,99 L 53,101 L 51,101 Z" fill="#8e8e88" />
  <path d="M 91,100 L 87,100 L 85,97 L 82,97 L 80,95 L 76,94 L 82,89 L 81,84 L 77,80 L 77,78 L 81,73 L 81,75 L 85,77 L 86,81 L 89,83 L 95,94 L 92,92 L 90,94 L 88,89 L 85,88 L 88,89 L 90,88 L 86,83 L 83,85 L 82,90 L 85,93 L 80,92 L 79,94 L 82,97 L 86,97 L 87,100 L 89,100 L 91,96 L 92,97 Z" fill="#8e8e88" />
  <path d="M 48,96 L 46,98 L 46,99 L 46,98 L 45,97 L 44,97 L 44,96 L 43,95 L 44,96 L 45,96 L 46,95 L 46,94 Z" fill="#8e8e88" />
  <path d="M 63,73 L 63,74 L 62,74 L 61,75 L 61,76 L 60,76 L 58,78 L 58,79 L 59,80 L 60,80 L 61,79 L 61,80 L 60,80 L 59,81 L 58,81 L 56,79 L 56,77 L 53,74 L 52,74 L 51,75 L 51,76 L 52,77 L 50,75 L 50,74 L 53,74 L 55,76 L 56,76 L 57,75 L 58,75 L 59,74 L 60,75 L 61,75 Z" fill="#8e8e88" />
  <path d="M 25,80 L 24,80 L 24,78 L 23,77 L 21,77 L 21,76 L 22,75 L 22,73 L 23,73 L 23,74 L 24,75 L 26,75 L 26,77 L 25,78 Z" fill="#8e8e88" />
  <path d="M 100,78 L 99,78 L 98,77 L 96,77 L 95,76 L 95,75 L 94,74 L 92,74 L 91,73 L 90,73 L 92,71 L 93,71 L 94,72 L 94,73 L 97,76 L 98,76 Z" fill="#8e8e88" />
</svg>
